<?xml version="1.0" encoding="utf-8"?>
<!-- Generator: Adobe Illustrator 23.0.2, SVG Export Plug-In . SVG Version: 6.00 Build 0)  -->
<svg version="1.1" id="Layer_1" xmlns="http://www.w3.org/2000/svg" xmlns:xlink="http://www.w3.org/1999/xlink" x="0px" y="0px"
	 viewBox="0 0 200 200" style="enable-background:new 0 0 200 200;" xml:space="preserve">
<style type="text/css">
	.st0{fill:#EDEDEE;}
	.st1{fill:none;stroke:#414042;stroke-width:2;stroke-miterlimit:10;}
	.st2{fill:#E55B3B;stroke:#414042;stroke-width:2;stroke-miterlimit:10;}
	.st3{fill:#E6E7E8;}
	.st4{fill:#D1D3D4;}
	.st5{fill:#F1F2F2;stroke:#414042;stroke-width:2;stroke-miterlimit:10;}
	.st6{fill:none;stroke:#414042;stroke-width:3;stroke-miterlimit:10;}
	.st7{fill:none;stroke:#724A80;stroke-width:4;stroke-miterlimit:10;}
	.st8{fill:none;stroke:#939598;stroke-width:4;stroke-miterlimit:10;}
	.st9{fill:none;stroke:#70C6A2;stroke-width:4;stroke-miterlimit:10;}
</style>
<g id="XMLID_362_">
	<g id="XMLID_356_">
		<g id="XMLID_352_">
			
				<image style="overflow:visible;opacity:0.5;enable-background:new    ;" width="333" height="300" id="XMLID_34_" xlink:href="24159119.png"  transform="matrix(0.2357 0 0 0.2357 -5.2412 123.5455)">
			</image>
			<g id="XMLID_18_">
				<path id="XMLID_33_" class="st0" d="M58.2,179.2H9.7c-1.1,0-1.9-0.9-1.9-1.9v-41c0-1.1,0.9-1.9,1.9-1.9h48.5
					c1.1,0,1.9,0.9,1.9,1.9v41C60.1,178.3,59.2,179.2,58.2,179.2z"/>
				<path id="XMLID_32_" class="st1" d="M58.2,179.2H9.7c-1.1,0-1.9-0.9-1.9-1.9v-41c0-1.1,0.9-1.9,1.9-1.9h48.5
					c1.1,0,1.9,0.9,1.9,1.9v41C60.1,178.3,59.2,179.2,58.2,179.2z"/>
			</g>
		</g>
		<path id="XMLID_351_" class="st2" d="M58.9,129.4H9c-0.7,0-1.2,0.8-1.2,1.7v9.4c0,0.5,0,1,0,1.5c0,0.4,0.2,0.2,0.5,0.2h51.3
			c0.3,0,0.6,0.1,0.6-0.2c0-0.4,0-0.9,0-1.4v-9.4C60.1,130.1,59.6,129.4,58.9,129.4z"/>
		<circle id="XMLID_355_" class="st3" cx="13.7" cy="135.8" r="1.9"/>
		<circle id="XMLID_354_" class="st3" cx="19.3" cy="135.8" r="1.9"/>
		<circle id="XMLID_353_" class="st3" cx="25.1" cy="135.8" r="1.9"/>
	</g>
	<g id="XMLID_357_">
		<g id="XMLID_365_">
			
				<image style="overflow:visible;opacity:0.5;enable-background:new    ;" width="329" height="313" id="XMLID_29_" xlink:href="2415911A.png"  transform="matrix(0.2346 0 0 0.2346 59.9544 120.9754)">
			</image>
			<g id="XMLID_16_">
				<path id="XMLID_28_" class="st0" d="M122.7,179.2H74.2c-1.1,0-1.9-0.9-1.9-1.9v-43.4c0-1.1,0.9-1.9,1.9-1.9h48.5
					c1.1,0,1.9,0.9,1.9,1.9v43.4C124.6,178.3,123.8,179.2,122.7,179.2z"/>
				<path id="XMLID_27_" class="st1" d="M122.7,179.2H74.2c-1.1,0-1.9-0.9-1.9-1.9v-43.4c0-1.1,0.9-1.9,1.9-1.9h48.5
					c1.1,0,1.9,0.9,1.9,1.9v43.4C124.6,178.3,123.8,179.2,122.7,179.2z"/>
			</g>
		</g>
		<path id="XMLID_361_" class="st2" d="M123.4,129.4H73.5c-0.7,0-1.2,0.8-1.2,1.7v9.4c0,0.5,0,1,0,1.5c0,0.4,0.2,0.2,0.5,0.2h51.3
			c0.3,0,0.6,0.1,0.6-0.2c0-0.4,0-0.9,0-1.4v-9.4C124.6,130.1,124.1,129.4,123.4,129.4z"/>
		<circle id="XMLID_360_" class="st3" cx="78.2" cy="135.8" r="1.9"/>
		<circle id="XMLID_359_" class="st3" cx="83.8" cy="135.8" r="1.9"/>
		<circle id="XMLID_358_" class="st3" cx="89.6" cy="135.8" r="1.9"/>
	</g>
	<g id="XMLID_368_">
		<g id="XMLID_376_">
			
				<image style="overflow:visible;opacity:0.5;enable-background:new    ;" width="333" height="300" id="XMLID_25_" xlink:href="2415911B.png"  transform="matrix(0.2357 0 0 0.2357 124.6797 123.5455)">
			</image>
			<g id="XMLID_15_">
				<path id="XMLID_24_" class="st0" d="M188.1,179.2h-48.5c-1.1,0-1.9-0.9-1.9-1.9v-41c0-1.1,0.9-1.9,1.9-1.9h48.5
					c1.1,0,1.9,0.9,1.9,1.9v41C190,178.3,189.1,179.2,188.1,179.2z"/>
				<path id="XMLID_23_" class="st1" d="M188.1,179.2h-48.5c-1.1,0-1.9-0.9-1.9-1.9v-41c0-1.1,0.9-1.9,1.9-1.9h48.5
					c1.1,0,1.9,0.9,1.9,1.9v41C190,178.3,189.1,179.2,188.1,179.2z"/>
			</g>
		</g>
		<path id="XMLID_375_" class="st2" d="M188.8,129.4h-49.9c-0.7,0-1.2,0.8-1.2,1.7v9.4c0,0.5,0,1,0,1.5c0,0.4,0.2,0.2,0.5,0.2h51.3
			c0.3,0,0.6,0.1,0.6-0.2c0-0.4,0-0.9,0-1.4v-9.4C190,130.1,189.5,129.4,188.8,129.4z"/>
		<circle id="XMLID_374_" class="st3" cx="143.6" cy="135.8" r="1.9"/>
		<circle id="XMLID_370_" class="st3" cx="149.2" cy="135.8" r="1.9"/>
		<circle id="XMLID_369_" class="st3" cx="155" cy="135.8" r="1.9"/>
	</g>
	<g id="XMLID_398_">
		
			<image style="overflow:visible;opacity:0.5;enable-background:new    ;" width="625" height="379" id="XMLID_31_" xlink:href="2415911C.png"  transform="matrix(0.2373 0 0 0.2373 24.7836 22.943)">
		</image>
		<g id="XMLID_17_">
			<path id="XMLID_30_" class="st4" d="M144.7,67.4L144.7,67.4c0-0.5,0-1,0-1.6c0-17.7-14.3-32-32-32c-12.5,0-23.4,7.2-28.6,17.7
				c-2.3-0.7-4.8-1.2-7.3-1.2c-10.8,0-20,7.2-22.8,17.2c-0.3,0-0.6,0-0.9,0c-8.4,0-15.2,6.8-15.2,15.2s6.8,15.2,15.2,15.2h91.7
				c8.4,0,15.2-6.8,15.2-15.2C160,74.2,153.2,67.4,144.7,67.4z"/>
			<path id="XMLID_26_" class="st1" d="M144.7,67.4L144.7,67.4c0-0.5,0-1,0-1.6c0-17.7-14.3-32-32-32c-12.5,0-23.4,7.2-28.6,17.7
				c-2.3-0.7-4.8-1.2-7.3-1.2c-10.8,0-20,7.2-22.8,17.2c-0.3,0-0.6,0-0.9,0c-8.4,0-15.2,6.8-15.2,15.2s6.8,15.2,15.2,15.2h91.7
				c8.4,0,15.2-6.8,15.2-15.2C160,74.2,153.2,67.4,144.7,67.4z"/>
		</g>
	</g>
	<circle id="XMLID_363_" class="st5" cx="98.9" cy="113.1" r="3.7"/>
	<circle id="XMLID_378_" class="st5" cx="163.8" cy="113.1" r="3.7"/>
	<circle id="XMLID_377_" class="st5" cx="33.9" cy="113.1" r="3.7"/>
	<line id="XMLID_366_" class="st6" x1="98.9" y1="97.9" x2="98.9" y2="109.4"/>
	<line id="XMLID_367_" class="st6" x1="98.9" y1="116.8" x2="98.9" y2="129.4"/>
	<line id="XMLID_371_" class="st6" x1="163.8" y1="128.3" x2="163.8" y2="116.8"/>
	<line id="XMLID_372_" class="st6" x1="33.9" y1="129.4" x2="33.9" y2="116.8"/>
	<line id="XMLID_373_" class="st1" x1="37.4" y1="113.1" x2="95.2" y2="113.1"/>
	<line id="XMLID_379_" class="st1" x1="102.6" y1="113.1" x2="160" y2="113.1"/>
	<line id="XMLID_414_" class="st7" x1="13" y1="151.6" x2="35.9" y2="151.6"/>
	<line id="XMLID_383_" class="st8" x1="13" y1="160.3" x2="33.3" y2="160.3"/>
	<line id="XMLID_382_" class="st8" x1="13" y1="169.2" x2="39.3" y2="169.2"/>
	<line id="XMLID_431_" class="st9" x1="77.6" y1="151.6" x2="91.6" y2="151.6"/>
	<line id="XMLID_430_" class="st7" x1="77.6" y1="160.3" x2="106.8" y2="160.3"/>
	<line id="XMLID_429_" class="st8" x1="77.6" y1="169.2" x2="103.9" y2="169.2"/>
	<line id="XMLID_422_" class="st8" x1="143" y1="151.5" x2="168.5" y2="151.5"/>
	<line id="XMLID_421_" class="st9" x1="143" y1="160.1" x2="160.4" y2="160.1"/>
	<line id="XMLID_417_" class="st8" x1="143" y1="169" x2="177.9" y2="169"/>
</g>
<g id="XMLID_1_">
</g>
<g id="XMLID_2_">
</g>
<g id="XMLID_3_">
</g>
<g id="XMLID_4_">
</g>
<g id="XMLID_5_">
</g>
<g id="XMLID_6_">
</g>
</svg>
