<?xml version="1.0" encoding="utf-8"?>
<!-- Generator: Adobe Illustrator 23.0.2, SVG Export Plug-In . SVG Version: 6.00 Build 0)  -->
<svg version="1.1" id="Layer_1" xmlns="http://www.w3.org/2000/svg" xmlns:xlink="http://www.w3.org/1999/xlink" x="0px" y="0px"
	 viewBox="0 0 200 200" style="enable-background:new 0 0 200 200;" xml:space="preserve">
<style type="text/css">
	.st0{fill:#EDEDEE;stroke:#414042;stroke-width:3;stroke-miterlimit:10;}
	.st1{fill:none;stroke:#D1D3D4;stroke-miterlimit:10;}
	.st2{fill:#FFDE17;stroke:#414042;stroke-width:3;stroke-miterlimit:10;}
	.st3{fill:none;stroke:#414042;stroke-width:3;stroke-miterlimit:10;}
	.st4{fill:#F26522;stroke:#414042;stroke-width:3;stroke-miterlimit:10;}
	.st5{opacity:5.000000e-02;stroke:#414042;stroke-miterlimit:10;enable-background:new    ;}
	.st6{fill:#E55B3B;}
	.st7{fill:none;stroke:#414042;stroke-width:2;stroke-miterlimit:10;}
	.st8{fill:#724A80;}
	.st9{fill:#70C6A2;}
</style>
<g id="XMLID_308_">
	<g id="XMLID_290_">
		<path id="XMLID_247_" class="st0" d="M177.1,172.5H7.6c-0.8,0-1.4-0.6-1.4-1.4V89.2c0-0.8,0.6-1.4,1.4-1.4h169.5
			c0.8,0,1.4,0.6,1.4,1.4V171C178.5,171.8,177.9,172.5,177.1,172.5z"/>
		<g id="XMLID_275_">
			<line id="XMLID_274_" class="st1" x1="17.9" y1="100" x2="168.5" y2="100"/>
			<line id="XMLID_276_" class="st1" x1="17.9" y1="110" x2="168.5" y2="110"/>
			<line id="XMLID_277_" class="st1" x1="18.8" y1="120.1" x2="169.3" y2="120.1"/>
			<line id="XMLID_278_" class="st1" x1="18.8" y1="130.3" x2="169.3" y2="130.3"/>
			<line id="XMLID_279_" class="st1" x1="18.8" y1="140.3" x2="169.3" y2="140.3"/>
			<line id="XMLID_280_" class="st1" x1="18.8" y1="150.2" x2="169.3" y2="150.2"/>
			<line id="XMLID_281_" class="st1" x1="18.8" y1="160.3" x2="169.3" y2="160.3"/>
		</g>
		<g id="XMLID_282_">
			<line id="XMLID_289_" class="st1" x1="23.7" y1="166.7" x2="23.7" y2="94.2"/>
			<line id="XMLID_288_" class="st1" x1="33.7" y1="166.7" x2="33.7" y2="94.2"/>
			<line id="XMLID_287_" class="st1" x1="43.8" y1="166.3" x2="43.8" y2="93.8"/>
			<line id="XMLID_286_" class="st1" x1="54" y1="166.3" x2="54" y2="93.8"/>
			<line id="XMLID_285_" class="st1" x1="64" y1="166.3" x2="64" y2="93.8"/>
			<line id="XMLID_284_" class="st1" x1="73.9" y1="166.3" x2="73.9" y2="93.8"/>
			<line id="XMLID_283_" class="st1" x1="84" y1="166.3" x2="84" y2="93.8"/>
		</g>
		<g id="XMLID_291_">
			<line id="XMLID_298_" class="st1" x1="94" y1="166.9" x2="94" y2="94.4"/>
			<line id="XMLID_297_" class="st1" x1="104" y1="166.9" x2="104" y2="94.4"/>
			<line id="XMLID_296_" class="st1" x1="114.1" y1="166.5" x2="114.1" y2="94"/>
			<line id="XMLID_295_" class="st1" x1="124.3" y1="166.5" x2="124.3" y2="94"/>
			<line id="XMLID_294_" class="st1" x1="134.3" y1="166.5" x2="134.3" y2="94"/>
			<line id="XMLID_293_" class="st1" x1="144.3" y1="166.5" x2="144.3" y2="94"/>
			<line id="XMLID_292_" class="st1" x1="154.3" y1="166.5" x2="154.3" y2="94"/>
			<line id="XMLID_299_" class="st1" x1="162.7" y1="166.5" x2="162.7" y2="94"/>
		</g>
	</g>
	<g id="XMLID_273_">
		
			<image style="overflow:visible;opacity:0.5;enable-background:new    ;" width="525" height="521" id="XMLID_237_" xlink:href="88A998F4.png"  transform="matrix(0.2377 0 0 0.2377 80.8357 69.1509)">
		</image>
		<g id="XMLID_141_">
			<g id="XMLID_205_">
				<path id="XMLID_218_" class="st2" d="M96.5,177.9h95.6V82.3L96.5,177.9z M175.3,161h-39l39-39V161z"/>
				<line id="XMLID_217_" class="st3" x1="136.3" y1="177.9" x2="136.3" y2="171.2"/>
				<line id="XMLID_216_" class="st3" x1="126.5" y1="177.9" x2="126.5" y2="171.2"/>
				<line id="XMLID_215_" class="st3" x1="146.2" y1="177.9" x2="146.2" y2="171.2"/>
				<line id="XMLID_214_" class="st3" x1="156.1" y1="177.9" x2="156.1" y2="171.2"/>
				<line id="XMLID_213_" class="st3" x1="165.8" y1="177.9" x2="165.8" y2="171.2"/>
				<line id="XMLID_212_" class="st3" x1="175.3" y1="177.9" x2="175.3" y2="171.2"/>
				<line id="XMLID_211_" class="st3" x1="192.1" y1="151.3" x2="185.4" y2="151.3"/>
				<line id="XMLID_210_" class="st3" x1="192.1" y1="161" x2="185.4" y2="161"/>
				<line id="XMLID_209_" class="st3" x1="192.1" y1="141.3" x2="185.4" y2="141.3"/>
				<line id="XMLID_208_" class="st3" x1="192.1" y1="131.4" x2="185.4" y2="131.4"/>
				<line id="XMLID_207_" class="st3" x1="192.1" y1="121.8" x2="185.4" y2="121.8"/>
				<line id="XMLID_206_" class="st3" x1="192.1" y1="112.3" x2="185.4" y2="112.3"/>
			</g>
		</g>
	</g>
	<g id="XMLID_304_">
		
			<image style="overflow:visible;opacity:0.5;enable-background:new    ;" width="763" height="167" id="XMLID_86_" xlink:href="88A998F3.png"  transform="matrix(0.2357 0 0 0.2357 5.3207 55.0205)">
		</image>
		<g id="XMLID_56_">
			<g id="XMLID_76_">
				<polyline id="XMLID_80_" class="st0" points="34.3,77.9 34.3,78 20.5,72.6 34.3,67.2 34.3,67.3 				"/>
				<rect id="XMLID_79_" x="35.5" y="66.6" class="st4" width="128.7" height="12"/>
				<rect id="XMLID_78_" x="164.2" y="66.6" class="st0" width="8.2" height="12"/>
				<rect id="XMLID_77_" x="36.6" y="72.6" class="st5" width="134.7" height="4.5"/>
			</g>
		</g>
	</g>
	<g id="XMLID_307_">
		
			<image style="overflow:visible;opacity:0.5;enable-background:new    ;" width="271" height="225" id="XMLID_29_" xlink:href="88A998FC.png"  transform="matrix(0.2357 0 0 0.2357 17.6128 86.314)">
		</image>
		<g id="XMLID_16_">
			<polygon id="XMLID_28_" class="st6" points="31.4,124.1 49.5,98 67.6,123.8 			"/>
			<polygon id="XMLID_27_" class="st7" points="31.4,124.1 49.5,98 67.6,123.8 			"/>
		</g>
	</g>
	<g id="XMLID_305_">
		
			<image style="overflow:visible;opacity:0.5;enable-background:new    ;" width="225" height="225" id="XMLID_24_" xlink:href="88A998FE.png"  transform="matrix(0.2368 0 0 0.2368 36.5396 102.2171)">
		</image>
		<g id="XMLID_14_">
			<rect id="XMLID_23_" x="49.5" y="113.2" class="st8" width="27.1" height="27.1"/>
			<rect id="XMLID_22_" x="49.5" y="113.2" class="st7" width="27.1" height="27.1"/>
		</g>
	</g>
	<g id="XMLID_306_">
		
			<image style="overflow:visible;opacity:0.5;enable-background:new    ;" width="258" height="263" id="XMLID_19_" xlink:href="88A998F2.png"  transform="matrix(0.2354 0 0 0.2354 43.6402 118.2307)">
		</image>
		<g id="XMLID_12_">
			<circle id="XMLID_18_" class="st9" cx="73.9" cy="147.1" r="17.9"/>
			<circle id="XMLID_17_" class="st7" cx="73.9" cy="147.1" r="17.9"/>
		</g>
	</g>
</g>
<g id="XMLID_1_">
</g>
<g id="XMLID_2_">
</g>
<g id="XMLID_3_">
</g>
<g id="XMLID_4_">
</g>
<g id="XMLID_5_">
</g>
<g id="XMLID_6_">
</g>
</svg>
