<?xml version="1.0" encoding="utf-8"?>
<!-- Generator: Adobe Illustrator 19.0.0, SVG Export Plug-In . SVG Version: 6.00 Build 0)  -->
<svg version="1.1" id="Layer_1" xmlns="http://www.w3.org/2000/svg" xmlns:xlink="http://www.w3.org/1999/xlink" x="0px" y="0px"
	 viewBox="0 0 100 100" style="enable-background:new 0 0 100 100;" xml:space="preserve">
<style type="text/css">
	.st0{clip-path:url(#XMLID_8_);fill-rule:evenodd;clip-rule:evenodd;fill:#191717;}
</style>
<g id="XMLID_210_">
	<defs>
		<path id="XMLID_185_" d="M80,90H20c-5.5,0-10-4.5-10-10V20c0-5.5,4.5-10,10-10h60c5.5,0,10,4.5,10,10v60C90,85.5,85.5,90,80,90z"
			/>
	</defs>
	<clipPath id="XMLID_8_">
		<use xlink:href="#XMLID_185_"  style="overflow:visible;"/>
	</clipPath>
	<path id="XMLID_209_" class="st0" d="M84.4-5.6c-45.2-4.7-47.7-7.3-71.3-6.4c-15.3,0.6-23,0.9-27.2,4.5c-8.7,7.3-8.5,24.8-7.7,59.5
		c0.4,21,1.6,24.3,3.6,27.2c12.8,18.9,50.6,11.8,55.8,10.8c0.4,0.1,1.4,0.2,2.1-0.4c0.5-0.4,0.6-1,0.6-1.5c0-1,0-3.5-0.1-6.9
		c-11.3,2.4-13.7-5.4-13.7-5.4c-1.8-4.7-4.5-5.9-4.5-5.9c-3.7-2.5,0.3-2.5,0.3-2.5c4.1,0.3,6.2,4.2,6.2,4.2
		c3.6,6.2,9.5,4.4,11.8,3.4c0.4-2.6,1.4-4.4,2.6-5.4c-9-1-18.5-4.5-18.5-20c0-4.4,1.6-8,4.2-10.9c-0.4-1-1.8-5.1,0.4-10.7
		c0,0,3.4-1.1,11.1,4.2c3.2-0.9,6.7-1.3,10.1-1.4c3.4,0,6.9,0.5,10.1,1.4c7.7-5.2,11.1-4.2,11.1-4.2c2.2,5.6,0.8,9.7,0.4,10.7
		c2.6,2.8,4.2,6.5,4.2,10.9c0,15.6-9.5,19-18.5,20c1.5,1.3,2.8,3.7,2.8,7.5c0,5.4,0,9.8,0,11.1c0,1.1,0.7,2.3,2.8,1.9
		c8.2-0.1,18.8-0.3,31.2-0.4c13.6-0.1,17.8,0,20.9-3.2c3.8-3.8,2.2-8.5,0.9-29.1c-0.9-13.8-0.5-16.3-1.8-32.2
		c-1.5-17.3-2.5-20.1-4.5-22.7C104.8-3.7,97-4.3,84.4-5.6z"/>
</g>
<g id="XMLID_1_">
</g>
<g id="XMLID_2_">
</g>
<g id="XMLID_3_">
</g>
<g id="XMLID_4_">
</g>
<g id="XMLID_5_">
</g>
<g id="XMLID_6_">
</g>
</svg>
