<?xml version="1.0" encoding="utf-8"?>
<!-- Generator: Adobe Illustrator 19.0.0, SVG Export Plug-In . SVG Version: 6.00 Build 0)  -->
<svg version="1.1" id="Layer_1" xmlns="http://www.w3.org/2000/svg" xmlns:xlink="http://www.w3.org/1999/xlink" x="0px" y="0px"
	 viewBox="0 0 100 100" style="enable-background:new 0 0 100 100;" xml:space="preserve">
<style type="text/css">
	.st0{fill:#007BB6;}
	.st1{fill:#FFFFFF;}
</style>
<g id="XMLID_174_">
	<g id="XMLID_175_">
		<path id="XMLID_180_" class="st0" d="M84.1,10H15.9c-3.3,0-5.9,2.6-5.9,5.8v68.5c0,3.2,2.6,5.8,5.9,5.8h68.2
			c3.3,0,5.9-2.6,5.9-5.8V15.8C90,12.6,87.3,10,84.1,10z"/>
		<path id="XMLID_177_" class="st1" d="M21.9,40h11.9v38.2H21.9V40z M27.8,21c3.8,0,6.9,3.1,6.9,6.9c0,3.8-3.1,6.9-6.9,6.9
			c-3.8,0-6.9-3.1-6.9-6.9C20.9,24.1,24,21,27.8,21"/>
		<path id="XMLID_176_" class="st1" d="M41.2,40h11.4v5.2h0.2c1.6-3,5.5-6.2,11.2-6.2c12,0,14.2,7.9,14.2,18.2v20.9H66.3V59.6
			c0-4.4-0.1-10.1-6.2-10.1c-6.2,0-7.1,4.8-7.1,9.8v18.9H41.2V40z"/>
	</g>
</g>
<g id="XMLID_1_">
</g>
<g id="XMLID_2_">
</g>
<g id="XMLID_3_">
</g>
<g id="XMLID_4_">
</g>
<g id="XMLID_5_">
</g>
<g id="XMLID_6_">
</g>
</svg>
