<?xml version="1.0" encoding="utf-8"?>
<!-- Generator: Adobe Illustrator 23.0.2, SVG Export Plug-In . SVG Version: 6.00 Build 0)  -->
<svg version="1.1" id="Layer_1" xmlns="http://www.w3.org/2000/svg" xmlns:xlink="http://www.w3.org/1999/xlink" x="0px" y="0px"
	 viewBox="0 0 200 200" style="enable-background:new 0 0 200 200;" xml:space="preserve">
<style type="text/css">
	.st0{fill:#D1D3D4;stroke:#414042;stroke-width:3;stroke-miterlimit:10;}
	.st1{fill:#58595B;}
	.st2{fill:none;stroke:#414042;stroke-width:3;stroke-miterlimit:10;}
	.st3{fill:#428E99;stroke:#414042;stroke-miterlimit:10;}
	.st4{fill:#EDEDEE;}
	.st5{fill:none;stroke:#414042;stroke-width:2;stroke-miterlimit:10;}
	.st6{fill:#E55B3B;stroke:#414042;stroke-width:2;stroke-miterlimit:10;}
	.st7{fill:none;stroke:#808285;stroke-miterlimit:10;}
	.st8{fill:none;stroke:#724A80;stroke-width:3;stroke-miterlimit:10;}
	.st9{fill:none;stroke:#70C6A2;stroke-width:3;stroke-miterlimit:10;}
	.st10{fill:none;stroke:#808285;stroke-width:3;stroke-miterlimit:10;}
	.st11{fill:none;stroke:#724A80;stroke-width:4;stroke-miterlimit:10;}
	.st12{fill:none;stroke:#70C6A2;stroke-width:4;stroke-miterlimit:10;}
	.st13{fill:#E6E7E8;}
	.st14{fill:none;stroke:#939598;stroke-width:4;stroke-miterlimit:10;}
	.st15{fill:none;stroke:#FFDE17;stroke-width:4;stroke-miterlimit:10;}
</style>
<g id="XMLID_243_">
	<polygon id="XMLID_27_" class="st0" points="130.7,169.5 86.7,169.5 95.4,148.1 122,148.1 	"/>
	<g id="XMLID_25_">
		
			<image style="overflow:visible;opacity:0.5;enable-background:new    ;" width="821" height="508" id="XMLID_43_" xlink:href="1B5CF744.png"  transform="matrix(0.2381 0 0 0.2381 10.9868 46.7713)">
		</image>
		<g id="XMLID_16_">
			<path id="XMLID_38_" class="st1" d="M187.9,152.2H29.5c-2.8,0-5.2-2.3-5.2-5.2V63.4c0-2.8,2.3-5.2,5.2-5.2h158.4
				c2.8,0,5.2,2.3,5.2,5.2V147C193.1,149.9,190.7,152.2,187.9,152.2z"/>
			<path id="XMLID_36_" class="st2" d="M187.9,152.2H29.5c-2.8,0-5.2-2.3-5.2-5.2V63.4c0-2.8,2.3-5.2,5.2-5.2h158.4
				c2.8,0,5.2,2.3,5.2,5.2V147C193.1,149.9,190.7,152.2,187.9,152.2z"/>
		</g>
	</g>
	<rect id="XMLID_26_" x="31.6" y="65.5" class="st3" width="154.2" height="65.2"/>
	<path id="XMLID_28_" class="st0" d="M147.2,178.5h-77c-1.7,0-3.1-1.4-3.1-3.1v-2.8c0-1.7,1.4-3.1,3.1-3.1h77c1.7,0,3.1,1.4,3.1,3.1
		v2.8C150.3,177.1,148.9,178.5,147.2,178.5z"/>
	<path id="XMLID_29_" class="st0" d="M193.1,137.2H28.7c-4.4,0-4.4-0.3-4.4,1.8c0,1.9,0,3.9,0,5.8l0,0c0,4.1,2,7.5,4.4,7.5h160
		c2.4,0,4.4-3.4,4.4-7.5l0,0c0-1.9,0-3.9,0-6.2C193.1,136.4,193.1,137.2,193.1,137.2z"/>
	<g id="XMLID_32_">
		
			<image style="overflow:visible;opacity:0.5;enable-background:new    ;" width="529" height="329" id="XMLID_24_" xlink:href="1B5CF745.png"  transform="matrix(0.2368 0 0 0.2368 -6.0543 63.4971)">
		</image>
		<g id="XMLID_14_">
			<path id="XMLID_23_" class="st4" d="M104.2,126.3H8.9c-1.1,0-1.9-0.9-1.9-1.9v-48c0-1.1,0.9-1.9,1.9-1.9h95.3
				c1.1,0,1.9,0.9,1.9,1.9v48C106.1,125.4,105.2,126.3,104.2,126.3z"/>
			<path id="XMLID_22_" class="st5" d="M104.2,126.3H8.9c-1.1,0-1.9-0.9-1.9-1.9v-48c0-1.1,0.9-1.9,1.9-1.9h95.3
				c1.1,0,1.9,0.9,1.9,1.9v48C106.1,125.4,105.2,126.3,104.2,126.3z"/>
		</g>
	</g>
	<path id="XMLID_33_" class="st6" d="M103.8,70.2H9.2c-1.3,0-2.3,0.6-2.3,1.4v8c0,0.4,0,0.9,0,1.3S7.2,81,7.8,81H105
		c0.6,0,1.1,0.1,1.1-0.2c0-0.4,0-0.8,0-1.2v-8C106.1,70.9,105.1,70.2,103.8,70.2z"/>
	<g id="XMLID_35_">
		
			<image style="overflow:visible;opacity:0.5;enable-background:new    ;" width="371" height="467" id="XMLID_31_" xlink:href="1B5CF743.png"  transform="matrix(0.2369 0 0 0.2369 105.569 30.7368)">
		</image>
		<g id="XMLID_15_">
			<path id="XMLID_30_" class="st4" d="M178.6,126.3h-58.5c-1.1,0-1.9-0.9-1.9-1.9V43.7c0-1.1,0.9-1.9,1.9-1.9h58.5
				c1.1,0,1.9,0.9,1.9,1.9v80.7C180.6,125.4,179.7,126.3,178.6,126.3z"/>
			<path id="XMLID_21_" class="st5" d="M178.6,126.3h-58.5c-1.1,0-1.9-0.9-1.9-1.9V43.7c0-1.1,0.9-1.9,1.9-1.9h58.5
				c1.1,0,1.9,0.9,1.9,1.9v80.7C180.6,125.4,179.7,126.3,178.6,126.3z"/>
		</g>
	</g>
	<path id="XMLID_34_" class="st6" d="M179.1,37.5h-59.5c-0.8,0-1.4,0.6-1.4,1.4v8c0,0.4,0,0.9,0,1.3c0,0.4,0.2,0.1,0.6,0.1h61.1
		c0.3,0,0.7,0.1,0.7-0.2c0-0.4,0-0.8,0-1.2v-8C180.6,38.1,179.9,37.5,179.1,37.5z"/>
	<line id="XMLID_41_" class="st7" x1="126.4" y1="54.9" x2="126.4" y2="91.5"/>
	<polyline id="XMLID_37_" class="st8" points="125.5,87 133.4,67.3 143,74.9 160.2,76 173.3,52.5 	"/>
	<polyline id="XMLID_39_" class="st9" points="125.1,70.9 140,82.6 152.2,66.7 173.7,59.9 	"/>
	<line id="XMLID_40_" class="st10" x1="139.3" y1="55.9" x2="159.4" y2="55.9"/>
	<line id="XMLID_57_" class="st10" x1="143.2" y1="99.9" x2="158.1" y2="99.9"/>
	<line id="XMLID_42_" class="st7" x1="125.8" y1="90.9" x2="174.2" y2="90.9"/>
	<line id="XMLID_58_" class="st7" x1="126.4" y1="105.2" x2="126.4" y2="122.5"/>
	<line id="XMLID_55_" class="st11" x1="126.4" y1="117.7" x2="168" y2="117.7"/>
	<line id="XMLID_56_" class="st12" x1="126.4" y1="110" x2="161.2" y2="110"/>
	<circle id="XMLID_59_" class="st13" cx="12.7" cy="75.7" r="1.9"/>
	<circle id="XMLID_63_" class="st13" cx="18.4" cy="75.7" r="1.9"/>
	<circle id="XMLID_64_" class="st13" cx="24.3" cy="75.7" r="1.9"/>
	<circle id="XMLID_78_" class="st13" cx="124.1" cy="43" r="1.9"/>
	<circle id="XMLID_77_" class="st13" cx="129.8" cy="43" r="1.9"/>
	<circle id="XMLID_61_" class="st13" cx="135.8" cy="43" r="1.9"/>
	<line id="XMLID_238_" class="st12" x1="12.7" y1="86.6" x2="20.3" y2="86.6"/>
	<line id="XMLID_239_" class="st12" x1="12.7" y1="120.8" x2="20.2" y2="120.8"/>
	<line id="XMLID_240_" class="st11" x1="16.5" y1="93" x2="34.5" y2="93"/>
	<line id="XMLID_242_" class="st11" x1="17.2" y1="114.6" x2="27.9" y2="114.6"/>
	<line id="XMLID_241_" class="st14" x1="22.4" y1="100.4" x2="38.7" y2="100.4"/>
	<line id="XMLID_244_" class="st14" x1="50" y1="100.4" x2="66.3" y2="100.4"/>
	<line id="XMLID_246_" class="st15" x1="41.1" y1="100.4" x2="47.9" y2="100.4"/>
	<line id="XMLID_245_" class="st14" x1="22.4" y1="107.6" x2="70.5" y2="107.6"/>
</g>
<g id="XMLID_1_">
</g>
<g id="XMLID_2_">
</g>
<g id="XMLID_3_">
</g>
<g id="XMLID_4_">
</g>
<g id="XMLID_5_">
</g>
<g id="XMLID_6_">
</g>
</svg>
