<svg width="56.52878945542838" height="137.277862613737" xmlns="http://www.w3.org/2000/svg" xmlns:xlink="http://www.w3.org/1999/xlink" version="1.1" preserveAspectRatio="xMidYMid meet">
 <defs>
  <path d="m60.26,49.67c0,23.43 -12.66,42.46 -28.26,42.46c-15.6,0 -28.26,-19.03 -28.26,-42.46c0,-23.43 12.66,-42.46 28.26,-42.46c15.6,0 28.26,19.03 28.26,42.46z" id="a1BInN1aKT"/>
  <path d="m27.29,28.44c0,1.56 0,2.83 0,2.83c0,0 0,-1.27 0,-2.83c0,-1.56 0,-2.83 0,-2.83c0,0.57 0,1.27 0,2.83z" id="b7EK2eetM2"/>
  <path d="m31.9,22.16c1.38,0 2.5,1.12 2.5,2.5c0,2.58 0,7.82 0,10.4c0,1.38 -1.12,2.5 -2.5,2.5c-0.66,0 -0.14,0 -0.8,0c-1.38,0 -2.5,-1.12 -2.5,-2.5c0,-2.58 0,-7.82 0,-10.4c0,-1.38 1.12,-2.5 2.5,-2.5c0.66,0 0.14,0 0.8,0z" id="c2BqTwVDYT"/>
  <path d="m18.59,103.07c0.72,-0.52 1.74,-0.36 2.27,0.37c2.66,3.67 9.67,13.35 12.33,17.02c0.53,0.73 0.37,1.75 -0.36,2.27c-0.27,0.2 0.26,-0.19 0,0c-0.73,0.53 -1.75,0.37 -2.28,-0.36c-2.66,-3.67 -9.67,-13.35 -12.33,-17.02c-0.53,-0.73 -0.36,-1.75 0.37,-2.28c0.26,-0.19 -0.27,0.2 0,0z" id="e24IvjniE2"/>
  <path d="m45.41,102.89c-0.72,-0.52 -1.74,-0.36 -2.27,0.37c-2.66,3.67 -9.67,13.35 -12.33,17.02c-0.53,0.73 -0.37,1.74 0.36,2.27c0.27,0.19 -0.26,-0.19 0,0c0.73,0.53 1.75,0.37 2.28,-0.36c2.66,-3.67 9.67,-13.35 12.33,-17.02c0.53,-0.73 0.36,-1.75 -0.37,-2.28c-0.26,-0.19 0.27,0.19 0,0z" id="f3DFVY4x4b"/>
  <path d="m18.59,124.52c0.72,-0.53 1.74,-0.36 2.27,0.37c2.66,3.66 9.67,13.35 12.33,17.02c0.53,0.72 0.37,1.74 -0.36,2.27c-0.27,0.19 0.26,-0.19 0,0c-0.73,0.53 -1.75,0.37 -2.28,-0.36c-2.66,-3.67 -9.67,-13.35 -12.33,-17.02c-0.53,-0.73 -0.36,-1.75 0.37,-2.28c0.26,-0.19 -0.27,0.19 0,0z" id="a91GUQ9VgC"/>
  <path d="m45.41,124.34c-0.72,-0.53 -1.74,-0.36 -2.27,0.37c-2.66,3.66 -9.67,13.35 -12.33,17.01c-0.53,0.73 -0.37,1.75 0.36,2.28c0.27,0.19 -0.26,-0.19 0,0c0.73,0.53 1.75,0.37 2.28,-0.36c2.66,-3.67 9.67,-13.35 12.33,-17.02c0.53,-0.73 0.36,-1.75 -0.37,-2.28c-0.26,-0.19 0.27,0.19 0,0z" id="g6cfaqAchy"/>
 </defs>
 <g>
  <title>Layer 1</title>
  <g id="svg_1" stroke="null">
   <g id="svg_2" stroke="null">
    <g id="svg_3" stroke="null">
     <g id="svg_4" stroke="null">
      <use xlink:href="#a1BInN1aKT" fill-opacity="0" stroke-width="9" id="svg_5" transform="matrix(0.863375 0 0 0.863375 0.510976 0.985064)" stroke="#000000" y="0.20907" x="0.41814"/>
     </g>
    </g>
    <g id="svg_6" stroke="null">
     <use xlink:href="#b7EK2eetM2" fill="#03e54a" id="svg_7" transform="matrix(0.863375 0 0 0.863375 0.510976 0.985064)" stroke="null" y="0.20907" x="0.41814"/>
    </g>
    <g id="svg_8" stroke="null">
     <use xlink:href="#c2BqTwVDYT" fill="#000000" id="svg_9" transform="matrix(0.863375 0 0 0.863375 0.510976 0.985064)" stroke="null" y="0.20907" x="0.41814"/>
     <g id="svg_10" stroke="null">
      <use xlink:href="#c2BqTwVDYT" fill-opacity="0" stroke-width="4" id="svg_11" transform="matrix(0.863375 0 0 0.863375 0.510976 0.985064)" stroke="#0f020e" y="1.46349" x="0.41814"/>
     </g>
    </g>
    <g id="svg_12" stroke="null">
     <g id="svg_13" stroke="null">
      <use xlink:href="#e24IvjniE2" fill="#0b0801" id="svg_14" transform="matrix(0.863375 0 0 0.863375 0.510976 0.985064)" stroke="null" y="0.20907" x="0.41814"/>
      <g id="svg_15" stroke="null">
       <use xlink:href="#e24IvjniE2" fill-opacity="0" stroke-width="5" id="svg_16" transform="matrix(0.863375 0 0 0.863375 0.510976 0.985064)" stroke="#0f020e" y="0.20907" x="0.41814"/>
      </g>
     </g>
     <g id="svg_17" stroke="null">
      <use xlink:href="#f3DFVY4x4b" fill="#0b0801" id="svg_18" transform="matrix(0.863375 0 0 0.863375 0.510976 0.985064)" stroke="null" y="0.20907" x="0.41814"/>
      <g id="svg_19" stroke="null">
       <use xlink:href="#f3DFVY4x4b" fill-opacity="0" stroke-width="5" id="svg_20" transform="matrix(0.863375 0 0 0.863375 0.510976 0.985064)" stroke="#0f020e" y="0.20907" x="0.41814"/>
      </g>
     </g>
    </g>
    <g id="svg_21" stroke="null">
     <g id="svg_22" stroke="null">
      <use xlink:href="#a91GUQ9VgC" fill="#0b0801" id="svg_23" transform="matrix(0.863375 0 0 0.863375 0.510976 0.985064)" stroke="null" y="0.20907" x="0.41814"/>
      <g id="svg_24" stroke="null">
       <use xlink:href="#a91GUQ9VgC" fill-opacity="0" stroke-width="5" id="svg_25" transform="matrix(0.863375 0 0 0.863375 0.510976 0.985064)" stroke="#0f020e" y="0.20907" x="0.41814"/>
      </g>
     </g>
     <g id="svg_26" stroke="null">
      <use xlink:href="#g6cfaqAchy" fill="#0b0801" id="svg_27" transform="matrix(0.863375 0 0 0.863375 0.510976 0.985064)" stroke="null" y="0.20907" x="0.41814"/>
      <g id="svg_28" stroke="null">
       <use xlink:href="#g6cfaqAchy" fill-opacity="0" stroke-width="5" id="svg_29" transform="matrix(0.863375 0 0 0.863375 0.510976 0.985064)" stroke="#0f020e" y="0.20907" x="0.41814"/>
      </g>
     </g>
    </g>
   </g>
  </g>
 </g>
</svg>