<?xml version="1.0" encoding="utf-8"?>
<!-- Generator: Adobe Illustrator 19.0.0, SVG Export Plug-In . SVG Version: 6.00 Build 0)  -->
<svg version="1.1" id="Layer_1" xmlns="http://www.w3.org/2000/svg" xmlns:xlink="http://www.w3.org/1999/xlink" x="0px" y="0px"
	 viewBox="0 0 100 100" style="enable-background:new 0 0 100 100;" xml:space="preserve">
<style type="text/css">
	.st0{fill:#439CD6;}
	.st1{fill:#FFFFFF;}
</style>
<g id="XMLID_184_">
	<g id="Dark_Blue">
		<path id="XMLID_183_" class="st0" d="M80,90H20c-5.5,0-10-4.5-10-10V20c0-5.5,4.5-10,10-10h60c5.5,0,10,4.5,10,10v60
			C90,85.5,85.5,90,80,90z"/>
	</g>
	<g id="Logo__x2014__FIXED">
		<path id="XMLID_164_" class="st1" d="M40.7,70.3c18.9,0,29.2-15.6,29.2-29.2c0-0.4,0-0.9,0-1.3c2-1.4,3.7-3.3,5.1-5.3
			c-1.8,0.8-3.8,1.4-5.9,1.6c2.1-1.3,3.7-3.3,4.5-5.7c-2,1.2-4.2,2-6.5,2.5c-1.9-2-4.5-3.2-7.5-3.2c-5.7,0-10.3,4.6-10.3,10.3
			c0,0.8,0.1,1.6,0.3,2.3c-8.5-0.4-16.1-4.5-21.1-10.7c-0.9,1.5-1.4,3.3-1.4,5.2c0,3.6,1.8,6.7,4.6,8.5C30,45.2,28.4,44.7,27,44
			c0,0,0,0.1,0,0.1c0,5,3.5,9.1,8.2,10.1c-0.9,0.2-1.8,0.4-2.7,0.4c-0.7,0-1.3-0.1-1.9-0.2c1.3,4.1,5.1,7,9.6,7.1
			c-3.5,2.8-7.9,4.4-12.7,4.4c-0.8,0-1.6,0-2.4-0.1C29.5,68.6,34.9,70.3,40.7,70.3"/>
	</g>
</g>
<g id="XMLID_1_">
</g>
<g id="XMLID_2_">
</g>
<g id="XMLID_3_">
</g>
<g id="XMLID_4_">
</g>
<g id="XMLID_5_">
</g>
<g id="XMLID_6_">
</g>
</svg>
