<?xml version="1.0" encoding="utf-8"?>
<!-- Generator: Adobe Illustrator 19.0.0, SVG Export Plug-In . SVG Version: 6.00 Build 0)  -->
<svg version="1.1" id="Layer_1" xmlns="http://www.w3.org/2000/svg" xmlns:xlink="http://www.w3.org/1999/xlink" x="0px" y="0px"
	 viewBox="0 0 200 200" style="enable-background:new 0 0 200 200;" xml:space="preserve">
<style type="text/css">
	.st0{fill:#E6E7E8;stroke:#808285;stroke-width:3;stroke-miterlimit:10;}
	.st1{fill:#ACE0EF;stroke:#3B90AD;stroke-width:3;stroke-miterlimit:10;}
	.st2{fill:#3685A2;stroke:#3685A2;stroke-width:3;stroke-miterlimit:10;}
	.st3{fill:#808285;}
	.st4{fill:#724A80;}
</style>
<g id="XMLID_157_">
	<rect id="XMLID_168_" x="50" y="50" class="st0" width="100" height="100"/>
	<rect id="XMLID_167_" x="50" y="50" class="st1" width="100" height="25.3"/>
	<rect id="XMLID_160_" x="57.1" y="61.1" class="st2" width="3" height="3"/>
	<g id="XMLID_156_">
		<path id="XMLID_8_" class="st3" d="M56.2,93.5l2.9-8.5H60l-2.9,8.5H56.2z"/>
		<path id="XMLID_10_" class="st3" d="M61.3,92.4l-1.9-4.8h1.1l1.3,3.8l1.3-3.8h1l-1.9,4.8H61.3z"/>
		<path id="XMLID_12_" class="st3" d="M67.8,91.9c-0.3,0.4-0.9,0.6-1.6,0.6c-1,0-1.7-0.6-1.7-1.5c0-0.9,0.7-1.4,1.8-1.5h1.5v-0.1
			c0-0.6-0.4-1-1.2-1c-0.5,0-0.9,0.2-1.4,0.5l-0.4-0.7c0.7-0.4,1.2-0.6,2.1-0.6c1.2,0,1.9,0.6,2,1.7l0,3.2h-1V91.9z M67.8,90.7v-0.4
			h-1.3c-0.7,0-1,0.2-1,0.6c0,0.4,0.4,0.7,0.9,0.7C67.1,91.7,67.7,91.3,67.8,90.7z"/>
		<path id="XMLID_15_" class="st3" d="M71.2,88.6c0.3-0.7,0.9-1,1.7-1v1c-1-0.1-1.6,0.5-1.7,1.3v2.5h-1v-4.8h1V88.6z"/>
		<path id="XMLID_17_" class="st3" d="M72.8,93.5l2.9-8.5h0.9l-2.9,8.5H72.8z"/>
		<path id="XMLID_19_" class="st3" d="M81.3,92.4l-1.2-3.6l-1.2,3.6h-1.1L76,87.6h1.1l1.3,3.8l1.2-3.8h1.1l1.2,3.8l1.2-3.8h1.1
			l-1.8,4.8H81.3z"/>
		<path id="XMLID_21_" class="st3" d="M89.4,92.4l-1.2-3.6L87,92.4h-1.1l-1.8-4.8h1.1l1.3,3.8l1.2-3.8h1.1l1.2,3.8l1.2-3.8h1.1
			l-1.8,4.8H89.4z"/>
		<path id="XMLID_23_" class="st3" d="M97.6,92.4l-1.2-3.6l-1.2,3.6H94l-1.8-4.8h1.1l1.3,3.8l1.2-3.8h1.1l1.2,3.8l1.2-3.8h1.1
			l-1.8,4.8H97.6z"/>
		<path id="XMLID_25_" class="st3" d="M100.2,93.5L103,85h0.9l-2.9,8.5H100.2z"/>
		<path id="XMLID_27_" class="st3" d="M108.8,89.4v3h-1v-2.7c0-0.7-0.4-1.2-1.2-1.2c-0.9,0-1.4,0.7-1.4,1.5v2.4h-1v-6.7h1v2.9
			c0.3-0.7,1-1,1.8-1C108.1,87.6,108.8,88.3,108.8,89.4z"/>
		<path id="XMLID_29_" class="st3" d="M113,92.1c-0.4,0.2-0.8,0.4-1.2,0.4c-0.7,0-1.4-0.4-1.4-1.4v-2.5h-0.7v-0.8h0.7v-1.3h1v1.3
			h1.4v0.8h-1.4v2.3c0,0.5,0.2,0.7,0.5,0.7c0.2,0,0.4-0.1,0.7-0.2L113,92.1z"/>
		<path id="XMLID_31_" class="st3" d="M122,89.4v3h-1v-2.7c0-0.7-0.4-1.2-1.1-1.2c-0.8,0-1.3,0.7-1.3,1.5v2.4h-1v-2.7
			c0-0.7-0.4-1.2-1.1-1.2c-0.8,0-1.3,0.7-1.3,1.5v2.4h-1v-4.8h1v0.9c0.3-0.7,1-1,1.8-1c0.9,0,1.5,0.4,1.7,1.2c0.3-0.8,1-1.2,1.8-1.2
			C121.3,87.6,122,88.3,122,89.4z"/>
		<path id="XMLID_33_" class="st3" d="M123.4,92.4v-6.7h1v6.7H123.4z"/>
	</g>
	<rect id="XMLID_159_" x="66.9" y="61.1" class="st2" width="3" height="3"/>
	<rect id="XMLID_158_" x="76.6" y="61.1" class="st2" width="3" height="3"/>
	<g id="XMLID_161_">
		<path id="XMLID_2_" class="st4" d="M59.7,102.8c0.9,0.3,1.9,0.6,1.9,1.9c0,1-0.8,1.7-1.9,1.8v1.3h-0.8v-1.3
			c-0.9-0.1-1.7-0.5-2.3-1l0.5-0.9c0.5,0.5,1.2,0.8,1.8,0.9v-1.8c-0.9-0.3-1.9-0.6-1.9-1.8c0-1,0.7-1.6,1.9-1.7v-1.2h0.8v1.2
			c0.7,0.1,1.4,0.3,1.9,0.6l-0.4,0.9c-0.5-0.3-1-0.5-1.4-0.5V102.8z M58.9,102.6v-1.4c-0.4,0.1-0.7,0.3-0.7,0.6
			C58.2,102.2,58.5,102.4,58.9,102.6z M59.7,105.5c0.5-0.1,0.7-0.4,0.7-0.7c0-0.4-0.3-0.7-0.7-0.8V105.5z"/>
		<path id="XMLID_6_" class="st3" d="M64.4,108.4v-0.6h5.1v0.6H64.4z"/>
	</g>
</g>
<g id="XMLID_1_">
</g>
<g id="XMLID_35_">
</g>
<g id="XMLID_36_">
</g>
<g id="XMLID_37_">
</g>
<g id="XMLID_38_">
</g>
<g id="XMLID_39_">
</g>
</svg>
