<?xml version="1.0" encoding="utf-8"?>
<!-- Generator: Adobe Illustrator 19.0.0, SVG Export Plug-In . SVG Version: 6.00 Build 0)  -->
<svg version="1.1" id="Layer_1" xmlns="http://www.w3.org/2000/svg" xmlns:xlink="http://www.w3.org/1999/xlink" x="0px" y="0px"
	 viewBox="0 0 100 100" style="enable-background:new 0 0 100 100;" xml:space="preserve">
<style type="text/css">
	.st0{clip-path:url(#XMLID_8_);fill:#EDEDEE;stroke:#808285;stroke-width:3;stroke-miterlimit:10;}
	.st1{clip-path:url(#XMLID_8_);fill:none;stroke:#808285;stroke-width:2;stroke-miterlimit:10;}
	.st2{clip-path:url(#XMLID_8_);}
	.st3{fill:none;stroke:#3685A2;stroke-width:2;stroke-miterlimit:10;}
	.st4{fill:#ACE0EF;stroke:#3685A2;stroke-width:2;stroke-miterlimit:10;}
	.st5{fill:none;stroke:#808285;stroke-width:3;stroke-miterlimit:10;}
</style>
<g id="XMLID_234_">
	<g id="XMLID_231_">
		<defs>
			<rect id="XMLID_230_" x="10" y="29.5" width="80" height="41"/>
		</defs>
		<clipPath id="XMLID_8_">
			<use xlink:href="#XMLID_230_"  style="overflow:visible;"/>
		</clipPath>
		<path id="XMLID_222_" class="st0" d="M75,87.1H25.4c-6.6,0-12-5.4-12-12V46.2c0-6.6,5.4-12,12-12H75c6.6,0,12,5.4,12,12v28.9
			C87,81.7,81.6,87.1,75,87.1z"/>
		<path id="XMLID_226_" class="st0" d="M34.2,87.1h-8.8c-6.6,0-12-5.4-12-12V46.2c0-6.6,5.4-12,12-12h8.8c6.6,0,12,5.4,12,12v28.9
			C46.2,81.7,40.8,87.1,34.2,87.1z"/>
		<line id="XMLID_227_" class="st1" x1="22.1" y1="50" x2="37.6" y2="50"/>
		<g id="XMLID_233_" class="st2">
			<line id="XMLID_228_" class="st3" x1="51.9" y1="50" x2="78.5" y2="50"/>
			<rect id="XMLID_229_" x="71.5" y="50" class="st4" width="6.3" height="12.1"/>
		</g>
	</g>
	<line id="XMLID_232_" class="st5" x1="12.9" y1="69.1" x2="87.1" y2="69.1"/>
</g>
<g id="XMLID_1_">
</g>
<g id="XMLID_2_">
</g>
<g id="XMLID_3_">
</g>
<g id="XMLID_4_">
</g>
<g id="XMLID_5_">
</g>
<g id="XMLID_6_">
</g>
</svg>
